<svg xmlns="http://www.w3.org/2000/svg" height="512" viewBox="0 0 512 512" width="512"><path d="m256 512c-141.2 0-256-114.8-256-256s114.8-256 256-256 256 114.8 256 256-114.8 256-256 256zm0-475.4c-121 0-219.4 98.4-219.4 219.4s98.4 219.4 219.4 219.4 219.4-98.4 219.4-219.4-98.4-219.4-219.4-219.4zm0 0"/><path d="m347.4 365.7c-4.7 0-9.4-1.8-12.9-5.4l-182.9-182.9c-7.1-7.1-7.1-18.7 0-25.9 7.1-7.1 18.7-7.1 25.9 0l182.9 182.9c7.1 7.1 7.1 18.7 0 25.9-3.6 3.6-8.2 5.4-12.9 5.4zm0 0"/><path d="m164.6 365.7c-4.7 0-9.4-1.8-12.9-5.4-7.1-7.1-7.1-18.7 0-25.9l182.9-182.9c7.1-7.1 18.7-7.1 25.9 0 7.1 7.1 7.1 18.7 0 25.9l-182.9 182.9c-3.6 3.6-8.2 5.4-12.9 5.4zm0 0"/></svg>