<svg xmlns="http://www.w3.org/2000/svg" viewBox="0 0 512 512"><path d="M506.8 242.8l-118.4-125.4c-7.3-7.7-19.4-8.1-27.1-0.8 -7.7 7.3-8.1 19.4-0.8 27.1l106 112.3L360.4 368.3c-7.3 7.7-6.9 19.9 0.8 27.1 3.7 3.5 8.5 5.2 13.2 5.2 5.1 0 10.2-2 14-6l118.4-125.4C513.7 261.8 513.7 250.2 506.8 242.8z"/><path d="M151.6 368.3L45.6 256l106-112.3c7.3-7.7 6.9-19.9-0.8-27.1 -7.7-7.3-19.9-6.9-27.1 0.8l-118.4 125.4c-7 7.4-7 19 0 26.4L123.6 394.6c3.8 4 8.9 6 14 6 4.7 0 9.5-1.7 13.2-5.2C158.5 388.1 158.8 376 151.6 368.3z"/><path d="M287.1 52.7c-10.5-1.6-20.3 5.6-21.9 16.1l-56.3 368.6c-1.6 10.5 5.6 20.3 16.1 21.9 1 0.1 2 0.2 2.9 0.2 9.3 0 17.5-6.8 19-16.3l56.3-368.6C304.7 64.1 297.5 54.3 287.1 52.7z"/></svg>