<svg xmlns="http://www.w3.org/2000/svg" height="512" viewBox="-105 0 512 512" width="512"><path d="m150.6 0c-83 0-150.6 67.6-150.6 150.6v210.8c0 83 67.6 150.6 150.6 150.6 83 0 150.6-67.6 150.6-150.6v-210.8c0-83-67.6-150.6-150.6-150.6zm119.9 361.4c0 66.1-53.8 119.9-119.9 119.9-66.1 0-119.9-53.8-119.9-119.9v-210.8c0-66.1 53.8-119.9 119.9-119.9 66.1 0 119.9 53.8 119.9 119.9zm0 0"/><path d="m150.6 101.9c-8.5 0-15.4 6.9-15.4 15.4v70.7c0 8.5 6.9 15.4 15.4 15.4 8.5 0 15.4-6.9 15.4-15.4v-70.7c0-8.5-6.9-15.4-15.4-15.4zm0 0"/></svg>